<svg xmlns="http://www.w3.org/2000/svg" width="16.736" height="16.736" viewBox="0 0 16.736 16.736">
  <path id="_001-close" data-name="001-close" d="M11.13,8.368l5.177-5.177a1.464,1.464,0,0,0,0-2.071l-.69-.69a1.464,1.464,0,0,0-2.071,0L8.369,5.607,3.191.429a1.464,1.464,0,0,0-2.071,0l-.691.69a1.464,1.464,0,0,0,0,2.071L5.608,8.368.431,13.546a1.464,1.464,0,0,0,0,2.071l.69.69a1.464,1.464,0,0,0,2.071,0l5.177-5.177,5.177,5.177a1.464,1.464,0,0,0,2.071,0l.69-.69a1.464,1.464,0,0,0,0-2.071Zm0,0" transform="translate(0 0)" opacity="0.21"/>
</svg>
