<svg width="210" height="61" viewBox="0 0 210 61" fill="none" xmlns="http://www.w3.org/2000/svg">
<path d="M142.395 49.2078C138.056 49.2078 132.642 47.9099 129.453 44.8692C126.264 41.8285 124.855 37.4528 124.855 33.1142V10.865H136.425C136.425 18.2814 136.425 25.6978 136.425 33.1142C136.425 35.1537 136.907 37.4528 138.538 38.8248C140.17 40.1969 142.766 40.4194 144.731 39.6777C147.735 38.5653 148.365 35.3762 148.365 32.5209C148.365 27.9969 148.365 23.4729 148.365 18.986C148.365 16.279 148.365 13.572 148.365 10.865H160.417V33.1513C160.417 37.4157 159.008 41.6431 155.967 44.7209C152.778 47.8358 146.771 49.2078 142.395 49.2078Z" fill="white"/>
<path d="M179.848 49.2451C173.692 49.2451 167.648 47.1685 163.309 43.6086L163.124 43.4603L166.758 38.7138C167.499 37.7126 168.612 37.1934 169.984 37.1934C171.022 37.1934 172.172 37.4901 173.247 38.0463C175.435 39.1588 177.437 40.0858 179.773 40.1229H180.07C182.666 40.1229 184.075 39.3442 184.223 37.8238C184.483 35.636 181.776 34.9685 179.811 34.5235L178.772 34.264C174.211 33.1886 169.02 31.9649 166.535 27.7375C164.125 23.6585 165.015 18.2445 168.612 14.8701C172.468 11.2731 177.771 10.4944 181.553 10.4944C181.961 10.4944 182.406 10.4944 182.814 10.5315C188.043 10.754 192.604 12.3114 196.349 15.1667L196.535 15.315L193.457 20.0615C192.567 21.2482 191.417 21.8415 190.045 21.8415C189.155 21.8415 188.154 21.5819 187.042 21.0998C185.336 20.3582 183.482 19.6536 181.405 19.6536C181.071 19.6536 180.738 19.6536 180.404 19.6907C179.699 19.7649 178.735 19.9503 178.105 20.5807C177.771 20.9515 177.549 21.4707 177.586 21.9527C177.586 22.2123 177.66 22.546 177.956 22.8056C179.291 23.9181 181.22 24.3631 183.111 24.808C183.704 24.9564 184.26 25.0676 184.78 25.2159C189.971 26.6251 194.94 28.6275 196.312 33.4482C197.61 37.9351 195.645 43.1266 191.566 46.056C187.82 48.6518 183.111 49.2451 179.848 49.2451Z" fill="white"/>
<path d="M205.026 10.865C202.394 10.865 200.28 13.0157 200.28 15.6857C200.28 18.3556 202.431 20.5063 205.026 20.5063C207.696 20.5063 209.847 18.3556 209.847 15.6857C209.847 13.0157 207.659 10.865 205.026 10.865ZM205.026 19.7276C202.839 19.7276 201.022 17.8735 201.022 15.6486C201.022 13.4236 202.876 11.5695 205.026 11.5695C207.288 11.5695 209.105 13.3866 209.105 15.6486C209.105 17.9106 207.251 19.7276 205.026 19.7276Z" fill="white"/>
<path d="M202.913 13.2009H205.249C205.879 13.2009 206.398 13.3863 206.732 13.7201C207.029 14.0167 207.177 14.3876 207.177 14.8696C207.177 15.2775 207.066 15.6113 206.88 15.8708C206.695 16.1304 206.436 16.3158 206.102 16.4271L207.325 18.2441H206.028L204.952 16.6125H204.062V18.2441H202.95V13.2009H202.913ZM205.138 15.6483C205.397 15.6483 205.62 15.5742 205.768 15.4629C205.916 15.3146 205.991 15.1663 205.991 14.9438C205.991 14.7213 205.916 14.5359 205.768 14.3876C205.62 14.2763 205.397 14.2021 205.138 14.2021H204.025V15.6483H205.138Z" fill="white"/>
<path d="M114.027 34.5976C115.77 33.6335 116.957 32.4469 118.032 31.0007C119.441 29.0724 120.146 26.625 120.146 23.7326V23.6214C120.146 19.9873 118.996 17.0208 116.771 14.7958C115.511 13.5351 113.842 12.5338 111.877 11.8293C109.911 11.1247 107.464 10.7539 104.608 10.7539H86.9574V48.0213H98.1562V37.0821H101.679C102.124 37.0821 102.532 37.0821 102.94 37.0451V37.0821C102.94 37.0821 106.055 41.7174 108.242 45.0919C110.134 47.9843 114.027 47.9843 116.734 47.9843C119.404 47.9843 123.149 47.9843 123.149 47.9843C123.149 47.9843 116.512 38.2688 114.027 34.5976ZM98.1933 28.0712V20.5436H104.201C105.721 20.5436 106.908 20.8773 107.797 21.5077C108.613 22.101 109.021 23.0281 109.021 24.2888V24.4001C109.021 25.5125 108.613 26.4025 107.835 27.07C107.019 27.7375 105.795 28.1083 104.275 28.1083H98.1933V28.0712Z" fill="white"/>
<path d="M87.4023 55.2158H89.8498C90.1835 55.2158 90.5172 55.2529 90.7768 55.3641C91.0364 55.4754 91.2589 55.5866 91.4443 55.7721C91.5926 55.9204 91.7039 56.0687 91.778 56.2541C91.8522 56.4395 91.8893 56.662 91.8893 56.8845C91.8893 57.107 91.8522 57.3295 91.778 57.5149C91.7039 57.7003 91.5926 57.8486 91.4443 57.997C91.296 58.1453 91.1476 58.2565 90.9622 58.3307C90.7768 58.4049 90.5543 58.479 90.3318 58.5161L92.0747 60.8152H91.296L89.6643 58.6274H88.0327V60.8152H87.4023V55.2158ZM89.7756 58.1082C89.9981 58.1082 90.1835 58.0711 90.3689 58.0341C90.5543 57.997 90.7026 57.8857 90.8139 57.8116C90.9251 57.7003 91.0364 57.5891 91.1105 57.4407C91.1847 57.2924 91.2218 57.1441 91.2218 56.9587C91.2218 56.6249 91.1105 56.3283 90.851 56.1429C90.5914 55.9575 90.2577 55.8462 89.7756 55.8462H88.0327V58.1453H89.7756V58.1082Z" fill="white"/>
<path d="M93.7432 55.2151H94.3736V60.8886H93.7432V55.2151Z" fill="white"/>
<path d="M99.0832 60.9999C98.6382 60.9999 98.2674 60.9257 97.8965 60.7774C97.5257 60.6291 97.2291 60.4066 96.9695 60.147C96.7099 59.8874 96.5245 59.5537 96.3762 59.2199C96.2279 58.8491 96.1537 58.4783 96.1537 58.1075C96.1537 57.7367 96.2279 57.3288 96.3762 56.995C96.5245 56.6242 96.7099 56.3275 96.9695 56.068C97.2291 55.8084 97.5257 55.5859 97.8965 55.4376C98.2674 55.2893 98.6382 55.2151 99.0832 55.2151C99.5281 55.2151 99.899 55.2893 100.27 55.4376C100.641 55.5859 100.937 55.8084 101.197 56.068C101.456 56.3275 101.642 56.6613 101.79 56.995C101.938 57.3658 102.013 57.7367 102.013 58.1075C102.013 58.4783 101.938 58.8862 101.79 59.2199C101.642 59.5908 101.456 59.8874 101.197 60.147C100.937 60.4066 100.641 60.6291 100.27 60.7774C99.899 60.9257 99.4911 60.9999 99.0832 60.9999ZM99.0832 60.4066C99.4169 60.4066 99.7136 60.3324 99.9731 60.2212C100.233 60.1099 100.492 59.9245 100.678 59.7391C100.863 59.5166 101.011 59.2941 101.123 58.9975C101.234 58.7008 101.271 58.4041 101.271 58.1075C101.271 57.7737 101.234 57.4771 101.123 57.1804C101.011 56.8838 100.863 56.6613 100.641 56.4388C100.455 56.2163 100.196 56.068 99.9361 55.9196C99.6765 55.8084 99.3798 55.7342 99.0461 55.7342C98.7123 55.7342 98.4157 55.8084 98.1561 55.9196C97.8965 56.0309 97.637 56.2163 97.4516 56.4017C97.2661 56.6242 97.1178 56.8467 97.0066 57.1434C96.8953 57.44 96.8582 57.7367 96.8582 58.0333C96.8582 58.3671 96.8953 58.6637 97.0066 58.9604C97.1178 59.257 97.2661 59.4795 97.4886 59.702C97.6741 59.9245 97.9336 60.0728 98.1932 60.2212C98.4528 60.3324 98.7494 60.4066 99.0832 60.4066Z" fill="white"/>
<path d="M108.836 60.9999C108.502 60.9999 108.168 60.9628 107.872 60.8516C107.575 60.7403 107.352 60.592 107.13 60.3695C106.907 60.147 106.759 59.8874 106.648 59.5908C106.537 59.2941 106.462 58.9233 106.462 58.5154V55.2151H107.093V58.4783C107.093 59.1087 107.241 59.5537 107.538 59.8874C107.834 60.2212 108.279 60.3695 108.799 60.3695C109.318 60.3695 109.726 60.2212 110.059 59.8874C110.393 59.5537 110.504 59.1087 110.504 58.4783V55.2151H111.135V58.4783C111.135 58.8862 111.061 59.257 110.949 59.5537C110.838 59.8503 110.69 60.147 110.467 60.3324C110.245 60.5549 110.022 60.7032 109.726 60.8145C109.503 60.9257 109.169 60.9999 108.836 60.9999Z" fill="white"/>
<path d="M113.1 55.2151H115.548C115.881 55.2151 116.215 55.2522 116.475 55.3634C116.734 55.4747 116.957 55.5859 117.142 55.7713C117.29 55.9196 117.402 56.068 117.476 56.2534C117.55 56.4388 117.587 56.6613 117.587 56.8838C117.587 57.1063 117.55 57.3288 117.476 57.5142C117.402 57.6996 117.29 57.8479 117.142 57.9962C116.994 58.1446 116.845 58.2558 116.66 58.33C116.475 58.4041 116.252 58.4783 116.03 58.5154L117.772 60.8145H116.994L115.362 58.6266H113.73V60.8145H113.1V55.2151V55.2151ZM115.473 58.1075C115.696 58.1075 115.881 58.0704 116.067 58.0333C116.252 57.9962 116.4 57.885 116.512 57.8108C116.623 57.6996 116.734 57.5883 116.808 57.44C116.882 57.2917 116.92 57.1434 116.92 56.9579C116.92 56.6242 116.808 56.3275 116.549 56.1421C116.289 55.9567 115.955 55.8455 115.473 55.8455H113.73V58.1446H115.473V58.1075Z" fill="white"/>
<path d="M121.629 60.9999C121.295 60.9999 120.962 60.9628 120.665 60.8516C120.368 60.7403 120.146 60.592 119.923 60.3695C119.701 60.147 119.553 59.8874 119.441 59.5908C119.33 59.2941 119.256 58.9233 119.256 58.5154V55.2151H119.886V58.4783C119.886 59.1087 120.035 59.5537 120.331 59.8874C120.628 60.2212 121.073 60.3695 121.592 60.3695C122.111 60.3695 122.519 60.2212 122.853 59.8874C123.187 59.5537 123.298 59.1087 123.298 58.4783V55.2151H123.928V58.4783C123.928 58.8862 123.854 59.257 123.743 59.5537C123.632 59.8503 123.483 60.147 123.261 60.3324C123.038 60.5549 122.816 60.7032 122.519 60.8145C122.222 60.9257 122 60.9999 121.629 60.9999Z" fill="white"/>
<path d="M128.563 60.9999C128.118 60.9999 127.71 60.9257 127.377 60.7774C127.006 60.629 126.709 60.4065 126.487 60.147C126.227 59.8874 126.042 59.5907 125.893 59.2199C125.745 58.8491 125.708 58.4783 125.708 58.0704C125.708 57.6996 125.782 57.3287 125.93 56.9579C126.079 56.5871 126.264 56.2904 126.524 56.0309C126.783 55.7713 127.08 55.5488 127.414 55.4005C127.748 55.2521 128.155 55.178 128.563 55.178C128.786 55.178 129.008 55.178 129.231 55.2151C129.416 55.2521 129.602 55.2892 129.787 55.3634C129.972 55.4376 130.121 55.5117 130.269 55.5859C130.417 55.6971 130.566 55.7713 130.714 55.9196L130.306 56.4017C130.195 56.2904 130.084 56.2163 129.972 56.1421C129.861 56.0679 129.713 55.9938 129.602 55.9567C129.453 55.8825 129.305 55.8455 129.157 55.8084C129.008 55.7713 128.823 55.7713 128.6 55.7713C128.304 55.7713 128.007 55.8455 127.748 55.9567C127.488 56.0679 127.265 56.2534 127.08 56.4758C126.895 56.6983 126.746 56.9208 126.635 57.2175C126.524 57.5141 126.487 57.8108 126.487 58.1075C126.487 58.4412 126.524 58.7749 126.635 59.0345C126.746 59.3312 126.895 59.5537 127.08 59.7762C127.265 59.9986 127.525 60.147 127.785 60.2582C128.044 60.3695 128.378 60.4436 128.712 60.4436C129.045 60.4436 129.342 60.4065 129.639 60.2953C129.935 60.1841 130.158 60.0357 130.343 59.8874V58.4783H128.6V57.885H130.937V60.147C130.677 60.3695 130.343 60.592 129.972 60.7403C129.602 60.8886 129.045 60.9999 128.563 60.9999Z" fill="white"/>
<path d="M134.942 60.9999C134.608 60.9999 134.274 60.9628 133.977 60.8516C133.681 60.7403 133.458 60.592 133.236 60.3695C133.013 60.147 132.865 59.8874 132.754 59.5908C132.643 59.2941 132.568 58.9233 132.568 58.5154V55.2151H133.199V58.4783C133.199 59.1087 133.347 59.5537 133.644 59.8874C133.94 60.2212 134.385 60.3695 134.905 60.3695C135.424 60.3695 135.832 60.2212 136.165 59.8874C136.499 59.5537 136.61 59.1087 136.61 58.4783V55.2151H137.241V58.4783C137.241 58.8862 137.167 59.257 137.055 59.5537C136.944 59.8503 136.796 60.147 136.573 60.3324C136.351 60.5549 136.128 60.7032 135.832 60.8145C135.609 60.9257 135.312 60.9999 134.942 60.9999Z" fill="white"/>
<path d="M141.319 55.178H141.913L144.509 60.8886H143.804L143.137 59.4053H140.059L139.391 60.8886H138.724L141.319 55.178ZM142.914 58.812L141.616 55.9196L140.318 58.812H142.914Z" fill="white"/>
<path d="M147.809 58.664L145.436 55.2524H146.214L148.106 58.0707L150.034 55.2524H150.775L148.402 58.664V60.926H147.772V58.664H147.809Z" fill="white"/>
<path d="M156.523 60.9628C156.078 60.9628 155.67 60.8886 155.262 60.7403C154.854 60.592 154.521 60.3695 154.187 60.0728L154.595 59.5907C154.891 59.8503 155.188 60.0728 155.485 60.1841C155.781 60.3324 156.152 60.3695 156.523 60.3695C156.894 60.3695 157.228 60.2953 157.45 60.1099C157.673 59.9245 157.784 59.702 157.784 59.4053C157.784 59.2941 157.747 59.1458 157.71 59.0716C157.673 58.9603 157.598 58.8862 157.487 58.7749C157.376 58.7008 157.228 58.6266 157.042 58.5524C156.857 58.4783 156.597 58.4041 156.301 58.367C155.967 58.2929 155.707 58.2187 155.448 58.1075C155.225 58.0333 155.003 57.922 154.854 57.7737C154.706 57.6625 154.595 57.4771 154.521 57.3287C154.446 57.1433 154.409 56.9579 154.409 56.7354C154.409 56.5129 154.446 56.2904 154.558 56.105C154.632 55.9196 154.78 55.7713 154.929 55.623C155.114 55.4746 155.299 55.3634 155.522 55.2892C155.744 55.2151 156.004 55.178 156.263 55.178C156.671 55.178 157.042 55.2521 157.339 55.3634C157.636 55.4746 157.932 55.66 158.229 55.8825L157.858 56.3646C157.598 56.1421 157.339 55.9938 157.042 55.8825C156.783 55.7713 156.486 55.7342 156.189 55.7342C155.818 55.7342 155.522 55.8084 155.299 55.9938C155.077 56.1792 154.966 56.4017 154.966 56.6613C154.966 56.8096 155.003 56.9208 155.04 57.0321C155.077 57.1433 155.151 57.2175 155.262 57.3287C155.374 57.4029 155.522 57.5141 155.744 57.5883C155.93 57.6625 156.189 57.7366 156.523 57.8108C157.153 57.9591 157.636 58.1445 157.932 58.4041C158.229 58.6637 158.377 58.9974 158.377 59.4424C158.377 59.702 158.34 59.8874 158.229 60.1099C158.118 60.2953 158.006 60.4807 157.821 60.629C157.636 60.7774 157.45 60.8886 157.228 60.9628C157.079 60.9257 156.82 60.9628 156.523 60.9628Z" fill="white"/>
<path d="M160.157 55.2151H164.273V55.8084H160.825V57.7367H163.903V58.33H160.825V60.3324H164.31V60.9257H160.157V55.2151Z" fill="white"/>
<path d="M168.649 60.9999C168.204 60.9999 167.796 60.9257 167.463 60.7774C167.092 60.629 166.795 60.4065 166.573 60.147C166.313 59.8874 166.128 59.5907 165.979 59.2199C165.831 58.8491 165.794 58.4783 165.794 58.0704C165.794 57.6996 165.868 57.3287 166.016 56.9579C166.165 56.5871 166.35 56.2904 166.61 56.0309C166.869 55.7713 167.166 55.5488 167.5 55.4005C167.833 55.2521 168.241 55.178 168.649 55.178C168.872 55.178 169.094 55.178 169.317 55.2151C169.502 55.2521 169.687 55.2892 169.873 55.3634C170.058 55.4376 170.207 55.5117 170.355 55.5859C170.503 55.6971 170.652 55.7713 170.8 55.9196L170.392 56.4017C170.281 56.2904 170.17 56.2163 170.058 56.1421C169.947 56.0679 169.799 55.9938 169.687 55.9567C169.539 55.8825 169.391 55.8455 169.242 55.8084C169.094 55.7713 168.909 55.7713 168.686 55.7713C168.39 55.7713 168.093 55.8455 167.833 55.9567C167.574 56.0679 167.351 56.2534 167.166 56.4758C166.98 56.6983 166.832 56.9208 166.721 57.2175C166.61 57.5141 166.573 57.8108 166.573 58.1075C166.573 58.4412 166.61 58.7749 166.721 59.0345C166.832 59.3312 166.98 59.5537 167.166 59.7762C167.351 59.9986 167.611 60.147 167.87 60.2582C168.13 60.3695 168.464 60.4436 168.797 60.4436C169.131 60.4436 169.428 60.4065 169.725 60.2953C170.021 60.1841 170.244 60.0357 170.429 59.8874V58.4783H168.686V57.885H171.022V60.147C170.763 60.3695 170.429 60.592 170.058 60.7403C169.687 60.8886 169.131 60.9999 168.649 60.9999Z" fill="white"/>
<path d="M175.027 60.9999C174.693 60.9999 174.36 60.9628 174.063 60.8516C173.766 60.7403 173.544 60.592 173.321 60.3695C173.099 60.147 172.951 59.8874 172.839 59.5908C172.728 59.2941 172.654 58.9233 172.654 58.5154V55.2151H173.284V58.4783C173.284 59.1087 173.433 59.5537 173.729 59.8874C174.026 60.2212 174.471 60.3695 174.99 60.3695C175.509 60.3695 175.917 60.2212 176.251 59.8874C176.585 59.5537 176.696 59.1087 176.696 58.4783V55.2151H177.326V58.4783C177.326 58.8862 177.252 59.257 177.141 59.5537C177.03 59.8503 176.881 60.147 176.659 60.3324C176.436 60.5549 176.214 60.7032 175.917 60.8145C175.62 60.9257 175.398 60.9999 175.027 60.9999Z" fill="white"/>
<path d="M179.329 55.2151H181.776C182.11 55.2151 182.444 55.2522 182.703 55.3634C182.963 55.4747 183.185 55.5859 183.371 55.7713C183.519 55.9196 183.63 56.068 183.704 56.2534C183.779 56.4388 183.816 56.6613 183.816 56.8838C183.816 57.1063 183.779 57.3288 183.704 57.5142C183.63 57.6996 183.519 57.8479 183.371 57.9962C183.222 58.1446 183.074 58.2558 182.889 58.33C182.703 58.4041 182.481 58.4783 182.258 58.5154L184.001 60.8145H183.222L181.591 58.6266H179.959V60.8145H179.329V55.2151ZM181.702 58.1075C181.924 58.1075 182.11 58.0704 182.295 58.0333C182.481 57.9962 182.629 57.885 182.74 57.8108C182.852 57.6996 182.963 57.5883 183.037 57.44C183.111 57.2917 183.148 57.1434 183.148 56.9579C183.148 56.6242 183.037 56.3275 182.777 56.1421C182.518 55.9567 182.184 55.8455 181.702 55.8455H179.959V58.1446H181.702V58.1075Z" fill="white"/>
<path d="M188.191 60.9999C187.746 60.9999 187.376 60.9257 187.005 60.7774C186.634 60.6291 186.337 60.4066 186.078 60.147C185.818 59.8874 185.633 59.5537 185.484 59.2199C185.336 58.8491 185.262 58.4783 185.262 58.1075C185.262 57.7367 185.336 57.3288 185.484 56.995C185.633 56.6242 185.818 56.3275 186.078 56.068C186.337 55.8084 186.634 55.5859 187.005 55.4376C187.376 55.2893 187.746 55.2151 188.191 55.2151C188.636 55.2151 189.007 55.2893 189.378 55.4376C189.749 55.5859 190.046 55.8084 190.305 56.068C190.565 56.3275 190.75 56.6613 190.898 56.995C191.047 57.3658 191.121 57.7367 191.121 58.1075C191.121 58.4783 191.047 58.8862 190.898 59.2199C190.75 59.5908 190.565 59.8874 190.305 60.147C190.046 60.4066 189.749 60.6291 189.378 60.7774C189.044 60.9257 188.636 60.9999 188.191 60.9999ZM188.229 60.4066C188.562 60.4066 188.859 60.3324 189.119 60.2212C189.378 60.1099 189.638 59.9245 189.823 59.7391C190.008 59.5166 190.157 59.2941 190.268 58.9975C190.379 58.7008 190.416 58.4041 190.416 58.1075C190.416 57.7737 190.379 57.4771 190.268 57.1804C190.157 56.8838 190.008 56.6613 189.786 56.4388C189.601 56.2163 189.341 56.068 189.081 55.9196C188.822 55.8084 188.525 55.7342 188.191 55.7342C187.858 55.7342 187.561 55.8084 187.301 55.9196C187.042 56.0309 186.782 56.2163 186.597 56.4017C186.412 56.6242 186.263 56.8467 186.152 57.1434C186.041 57.44 186.004 57.7367 186.004 58.0333C186.004 58.3671 186.041 58.6637 186.152 58.9604C186.263 59.257 186.412 59.4795 186.634 59.702C186.819 59.9245 187.079 60.0728 187.339 60.2212C187.598 60.3324 187.895 60.4066 188.229 60.4066Z" fill="white"/>
<path d="M194.755 60.9628C194.31 60.9628 193.902 60.8886 193.494 60.7403C193.086 60.592 192.752 60.3695 192.418 60.0728L192.826 59.5907C193.123 59.8503 193.42 60.0728 193.716 60.1841C194.013 60.3324 194.384 60.3695 194.755 60.3695C195.125 60.3695 195.459 60.2953 195.682 60.1099C195.904 59.9245 196.015 59.702 196.015 59.4053C196.015 59.2941 195.978 59.1458 195.941 59.0716C195.904 58.9603 195.83 58.8862 195.719 58.7749C195.608 58.7008 195.459 58.6266 195.274 58.5524C195.088 58.4783 194.829 58.4041 194.532 58.367C194.198 58.2929 193.939 58.2187 193.679 58.1075C193.457 58.0333 193.234 57.922 193.086 57.7737C192.938 57.6625 192.826 57.4771 192.752 57.3287C192.678 57.1433 192.641 56.9579 192.641 56.7354C192.641 56.5129 192.678 56.2904 192.789 56.105C192.863 55.9196 193.012 55.7713 193.16 55.623C193.346 55.4746 193.531 55.3634 193.753 55.2892C193.976 55.2151 194.235 55.178 194.495 55.178C194.903 55.178 195.274 55.2521 195.57 55.3634C195.867 55.4746 196.164 55.66 196.46 55.8825L196.09 56.3646C195.83 56.1421 195.57 55.9938 195.274 55.8825C195.014 55.7713 194.718 55.7342 194.421 55.7342C194.05 55.7342 193.753 55.8084 193.531 55.9938C193.308 56.1792 193.197 56.4017 193.197 56.6613C193.197 56.8096 193.234 56.9208 193.271 57.0321C193.308 57.1433 193.383 57.2175 193.494 57.3287C193.605 57.4029 193.753 57.5141 193.976 57.5883C194.161 57.6625 194.421 57.7366 194.755 57.8108C195.385 57.9591 195.867 58.1445 196.164 58.4041C196.46 58.6637 196.609 58.9974 196.609 59.4424C196.609 59.702 196.572 59.8874 196.46 60.1099C196.349 60.2953 196.238 60.4807 196.053 60.629C195.867 60.7774 195.682 60.8886 195.459 60.9628C195.311 60.9257 195.051 60.9628 194.755 60.9628Z" fill="white"/>
<path d="M62.0752 9.93798C59.7019 11.5325 58.4411 13.3124 57.7366 14.9441C57.2916 14.017 56.4387 13.0158 55.3263 12.2C51.6551 9.493 44.9433 7.45349 40.7159 4.3386C40.7159 4.3386 40.9014 9.78965 44.8691 12.7191C48.3919 15.3149 52.3226 15.7969 54.1767 17.0206C55.9937 18.2073 56.4387 19.5793 56.8095 20.3209V20.358C57.1804 19.3939 59.5907 15.9823 62.8168 14.6845C67.0442 12.9416 69.6399 13.0529 74.4606 10.3459C80.3566 7.0085 82.0624 0 82.0624 0C75.3135 5.30273 67.415 6.34102 62.0752 9.93798Z" fill="white"/>
<path d="M77.4273 18.4299C57.4771 33.374 39.5665 19.3941 25.4012 20.9144C18.6152 21.6561 14.7216 23.6214 12.1629 28.1825C9.56716 32.7436 9.08509 33.4111 9.08509 33.4111C12.3854 31.557 17.3173 30.4816 22.1009 30.222C33.7076 29.5916 44.8322 36.0068 55.8084 35.8214C44.5355 37.0822 34.0413 31.2603 18.8006 33.5594C12.9045 34.4123 6.56352 37.6013 3.96778 42.0883L0 49.0597C10.5684 43.4974 21.5447 43.1636 34.1525 47.6506C51.099 53.6578 58.3671 51.5813 61.6674 45.9077C63.9294 41.8658 71.5312 28.7758 71.5312 28.7758L77.4273 18.4299Z" fill="white"/>
</svg>
