<svg width="40" height="25" viewBox="0 0 40 25" fill="none" xmlns="http://www.w3.org/2000/svg">
<path d="M30.3417 4.38504C29.1906 5.09124 28.5791 5.87956 28.2374 6.60219C28.0216 6.19161 27.6079 5.74818 27.0683 5.38686C25.2878 4.18796 22.0504 3.28467 20 1.92153C20 1.92153 20.0899 4.33577 22.0144 5.61679C23.723 6.76642 25.6115 6.97993 26.5108 7.5219C27.3921 8.04745 27.6079 8.65511 27.7878 8.98358V9C27.9676 8.57299 29.1367 7.06204 30.7014 6.48723C32.7518 5.71533 33.9928 5.7646 36.3309 4.56569C39.1906 3.08759 40 0 40 0C36.7446 2.33212 32.9317 2.79197 30.3417 4.38504Z" fill="#001BDA"/>
<path d="M1.89184 20.5014L0 23.9155C5.02132 21.1915 10.2371 21.028 16.2309 23.2254C24.2933 26.1674 27.741 25.1504 29.3146 22.3719C30.3931 20.3924 34 14 34 14C25.1066 21.3186 19.3604 14.7264 8.92876 16.3427C6.13521 16.7604 3.1118 18.3221 1.89184 20.5014Z" fill="#0074FF"/>
<path d="M26.5686 16.9982C26.6763 16.9811 26.784 16.9811 26.8917 16.9639C29.1719 16.6728 31.5419 15.7651 34.1632 13.7612L37 9C27.3765 15.8849 18.7225 9.44529 11.8819 10.1475C8.61425 10.49 6.72905 11.3977 5.49021 13.4872C4.23341 15.5938 4 15.9021 4 15.9021C5.59793 15.0457 7.9679 14.5491 10.284 14.4292C15.9037 14.1209 21.272 17.0838 26.5686 16.9982Z" fill="#001BDA"/>
</svg>
