<svg xmlns="http://www.w3.org/2000/svg" width="25.723" height="25.717" viewBox="0 0 25.723 25.717">
  <path id="Icon_awesome-instagram" data-name="Icon awesome-instagram" d="M12.859,8.5A6.593,6.593,0,1,0,19.452,15.1,6.583,6.583,0,0,0,12.859,8.5Zm0,10.88A4.287,4.287,0,1,1,17.146,15.1,4.294,4.294,0,0,1,12.859,19.383Zm8.4-11.15A1.538,1.538,0,1,1,19.722,6.7,1.534,1.534,0,0,1,21.26,8.233Zm4.367,1.561A7.611,7.611,0,0,0,23.55,4.405a7.661,7.661,0,0,0-5.388-2.077c-2.123-.121-8.487-.121-10.61,0A7.65,7.65,0,0,0,2.162,4.4,7.636,7.636,0,0,0,.085,9.788c-.121,2.123-.121,8.487,0,10.61a7.611,7.611,0,0,0,2.077,5.388,7.67,7.67,0,0,0,5.388,2.077c2.123.121,8.487.121,10.61,0a7.611,7.611,0,0,0,5.388-2.077A7.661,7.661,0,0,0,25.627,20.4c.121-2.123.121-8.481,0-10.6ZM22.884,22.677a4.34,4.34,0,0,1-2.445,2.445c-1.693.671-5.71.516-7.581.516s-5.893.149-7.581-.516a4.34,4.34,0,0,1-2.445-2.445c-.671-1.693-.516-5.71-.516-7.581S2.168,9.2,2.834,7.516A4.34,4.34,0,0,1,5.278,5.071c1.693-.671,5.71-.516,7.581-.516s5.893-.149,7.581.516a4.34,4.34,0,0,1,2.445,2.445c.671,1.693.516,5.71.516,7.581S23.555,20.99,22.884,22.677Z" transform="translate(0.005 -2.238)" fill="#fff"/>
</svg>
