<svg xmlns="http://www.w3.org/2000/svg" width="31.794" height="25.833" viewBox="0 0 31.794 25.833">
  <g id="_001-twitter" data-name="001-twitter" transform="translate(0 -48)">
    <g id="Group_18" data-name="Group 18" transform="translate(0 48)">
      <path id="Path_607" data-name="Path 607" d="M31.794,51.058a13.59,13.59,0,0,1-3.756,1.029,6.481,6.481,0,0,0,2.867-3.6,13.026,13.026,0,0,1-4.133,1.578A6.518,6.518,0,0,0,15.5,54.52a6.712,6.712,0,0,0,.151,1.486A18.449,18.449,0,0,1,2.214,49.188a6.52,6.52,0,0,0,2,8.712,6.437,6.437,0,0,1-2.945-.8v.072a6.548,6.548,0,0,0,5.222,6.4,6.505,6.505,0,0,1-1.709.215,5.763,5.763,0,0,1-1.234-.111,6.58,6.58,0,0,0,6.091,4.541A13.1,13.1,0,0,1,1.56,71,12.21,12.21,0,0,1,0,70.908a18.35,18.35,0,0,0,10,2.925c11.994,0,18.552-9.936,18.552-18.548,0-.288-.01-.566-.024-.843A13,13,0,0,0,31.794,51.058Z" transform="translate(0 -48)" fill="#fff"/>
    </g>
  </g>
</svg>
