<svg xmlns="http://www.w3.org/2000/svg" width="25.708" height="25.708" viewBox="0 0 25.708 25.708">
  <path id="Icon_awesome-facebook-square" data-name="Icon awesome-facebook-square" d="M22.954,2.25H2.754A2.754,2.754,0,0,0,0,5V25.2a2.754,2.754,0,0,0,2.754,2.754H10.63v-8.74H7.015V15.1H10.63V11.969c0-3.566,2.123-5.536,5.375-5.536a21.9,21.9,0,0,1,3.186.278v3.5H17.4a2.057,2.057,0,0,0-2.319,2.223V15.1h3.947l-.631,4.114H15.078v8.74h7.876A2.754,2.754,0,0,0,25.708,25.2V5A2.754,2.754,0,0,0,22.954,2.25Z" transform="translate(0 -2.25)" fill="#fff"/>
</svg>
