<svg width="183" height="54" viewBox="0 0 183 54" fill="none" xmlns="http://www.w3.org/2000/svg">
<path d="M124.184 42.8871C120.421 42.8871 115.652 41.7517 112.895 39.0915C110.137 36.4314 108.872 32.6358 108.872 28.8402V9.4404H118.961C118.961 15.8962 118.961 22.3844 118.961 28.8402C118.961 30.6244 119.383 32.6033 120.81 33.8361C122.238 35.0364 124.476 35.231 126.196 34.5822C128.823 33.609 129.375 30.8191 129.375 28.3211C129.375 24.3957 129.375 20.4379 129.375 16.5125C129.375 14.1444 129.375 11.7762 129.375 9.40796H139.886V28.8402C139.886 32.5384 138.653 36.2692 136.025 38.9293C133.268 41.7192 128.012 42.8871 124.184 42.8871Z" fill="#001BDA"/>
<path d="M156.853 42.9195C151.467 42.9195 146.212 41.1353 142.449 37.9885L142.286 37.8587L145.466 33.7063C146.115 32.8303 147.088 32.3762 148.288 32.3762C149.196 32.3762 150.202 32.6357 151.143 33.1223C153.057 34.0955 154.776 34.8741 156.853 34.939H157.112C159.383 34.939 160.583 34.2578 160.745 32.9277C160.973 31.0136 158.604 30.4621 156.885 30.0404L155.977 29.8133C151.986 28.8725 147.477 27.802 145.303 24.1037C143.195 20.5352 143.973 15.8312 147.12 12.8791C150.462 9.73232 155.101 9.0835 158.41 9.0835C158.767 9.0835 159.156 9.0835 159.513 9.11594C164.087 9.31058 168.045 10.6731 171.289 13.1711L171.451 13.2684L168.758 17.3884C167.98 18.4265 167.007 18.9456 165.774 18.9456C164.995 18.9456 164.119 18.7185 163.146 18.2968C161.686 17.6479 160.064 17.0316 158.215 17.0316C157.923 17.0316 157.631 17.0316 157.339 17.064C156.723 17.1289 155.879 17.2911 155.328 17.8426C155.036 18.167 154.841 18.6212 154.874 19.0429C154.874 19.27 154.938 19.562 155.198 19.789C156.333 20.7623 158.053 21.1516 159.707 21.5409C160.226 21.6706 160.713 21.7679 161.167 21.8977C165.676 23.1305 170.024 24.8823 171.224 29.0672C172.359 32.9926 170.64 37.5019 167.071 40.0647C163.795 42.4329 159.707 42.9195 156.853 42.9195Z" fill="#001BDA"/>
<path d="M178.783 9.44043C176.479 9.44043 174.63 11.322 174.63 13.6578C174.63 15.9611 176.479 17.8751 178.783 17.8751C181.086 17.8751 183 15.9935 183 13.6578C183 11.322 181.118 9.44043 178.783 9.44043ZM178.783 17.1938C176.869 17.1938 175.279 15.5718 175.279 13.6253C175.279 11.6789 176.869 10.0568 178.783 10.0568C180.729 10.0568 182.351 11.6464 182.351 13.6253C182.351 15.6042 180.762 17.1938 178.783 17.1938Z" fill="#001BDA"/>
<path d="M176.966 11.4844H178.977C179.529 11.4844 179.983 11.6466 180.275 11.9386C180.534 12.1981 180.664 12.5225 180.664 12.9442C180.664 13.3011 180.567 13.593 180.405 13.8201C180.243 14.0472 180.015 14.2094 179.723 14.3067L180.794 15.8964H179.659L178.718 14.469H177.939V15.8964H176.966V11.4844V11.4844ZM178.912 13.6255C179.139 13.6255 179.334 13.5606 179.464 13.4633C179.594 13.366 179.659 13.2038 179.659 13.0091C179.659 12.8145 179.594 12.6523 179.464 12.5225C179.334 12.4252 179.139 12.3603 178.912 12.3603H177.939V13.6255H178.912Z" fill="#001BDA"/>
<path d="M99.4643 30.1704C100.989 29.327 102.027 28.3213 102.968 27.0236C104.201 25.3367 104.817 23.1956 104.817 20.6652V20.5679C104.817 17.4211 103.844 14.8258 101.865 12.8793C100.762 11.7763 99.3345 10.9004 97.5827 10.2841C95.8633 9.66767 93.7222 9.34326 91.2567 9.34326H75.8472V41.8492H85.6119V32.3115H88.6614C89.0507 32.3115 89.4075 32.3115 89.7644 32.2791V32.3115C89.7644 32.3115 92.457 36.3342 94.4035 39.3188C96.058 41.8492 99.4643 41.8492 101.8 41.8492C104.136 41.8492 107.412 41.8492 107.412 41.8492C107.412 41.8492 101.605 33.3496 99.4643 30.1704ZM85.6119 24.4608V17.9077H90.835C92.165 17.9077 93.2032 18.1997 93.9493 18.7512C94.663 19.2702 95.0198 20.0813 95.0198 21.1518V21.2491C95.0198 22.2224 94.663 23.0009 93.9817 23.5524C93.268 24.1364 92.1975 24.4608 90.8674 24.4608H85.6119Z" fill="#001BDA"/>
<path d="M76.2365 48.1426H78.3451C78.6371 48.1426 78.9291 48.175 79.1562 48.2723C79.3833 48.3697 79.5779 48.467 79.7401 48.6292C79.8699 48.759 79.9672 48.8887 80.0321 49.0509C80.097 49.2131 80.1294 49.4078 80.1294 49.6024C80.1294 49.7971 80.097 49.9917 80.0321 50.1539C79.9672 50.3161 79.8699 50.4459 79.7401 50.5757C79.6103 50.7054 79.4806 50.8027 79.3184 50.8676C79.1562 50.9325 78.9615 50.9974 78.7669 51.0298L80.2916 53.0412H79.6103L78.1829 51.1272H76.788V53.0412H76.2365V48.1426ZM78.3127 50.673C78.5074 50.673 78.6696 50.6405 78.8318 50.6081C78.994 50.5757 79.1237 50.4783 79.2211 50.4135C79.3184 50.3161 79.4157 50.2188 79.4806 50.089C79.5455 49.9593 79.5779 49.8295 79.5779 49.6673C79.5779 49.3753 79.4806 49.1158 79.2535 48.9536C79.0264 48.7914 78.7344 48.6941 78.3127 48.6941H76.788V50.7054H78.3127V50.673Z" fill="#3E4B59"/>
<path d="M81.7515 48.1426H82.303V53.0736H81.7515V48.1426Z" fill="#3E4B59"/>
<path d="M86.3905 53.1709C86.0012 53.1709 85.6768 53.106 85.3524 52.9763C85.028 52.8465 84.7685 52.6519 84.5738 52.4248C84.3467 52.1977 84.1845 51.9057 84.0548 51.6137C83.925 51.2893 83.8601 50.9974 83.8601 50.6405C83.8601 50.3161 83.925 49.9917 84.0548 49.6673C84.1845 49.3429 84.3467 49.0833 84.5738 48.8563C84.8009 48.6292 85.0604 48.4345 85.3848 48.3048C85.7093 48.175 86.0337 48.1101 86.423 48.1101C86.8123 48.1101 87.1367 48.175 87.4611 48.3048C87.7855 48.4345 88.045 48.6292 88.2397 48.8563C88.4668 49.0833 88.629 49.3753 88.7587 49.6673C88.8885 49.9917 88.9534 50.2837 88.9534 50.6405C88.9534 50.9649 88.8885 51.2893 88.7587 51.6137C88.629 51.9382 88.4668 52.1977 88.2397 52.4248C88.0126 52.6519 87.753 52.8465 87.4286 52.9763C87.1042 53.106 86.7798 53.1709 86.3905 53.1709ZM86.3905 52.6519C86.6825 52.6519 86.942 52.587 87.1691 52.4896C87.3962 52.3923 87.6233 52.2301 87.7855 52.0679C87.9477 51.8733 88.0775 51.6786 88.1748 51.4191C88.2721 51.1596 88.3045 50.9 88.3045 50.6405C88.3045 50.3485 88.2721 50.089 88.1748 49.8619C88.0775 49.6024 87.9477 49.4078 87.753 49.2131C87.5908 49.0185 87.3638 48.8887 87.1367 48.7914C86.9096 48.694 86.65 48.6292 86.3581 48.6292C86.0661 48.6292 85.8066 48.694 85.5795 48.7914C85.3524 48.8887 85.1253 49.0509 84.9631 49.2131C84.8009 49.4078 84.6711 49.6024 84.5738 49.8619C84.4765 50.1215 84.4441 50.381 84.4441 50.6405C84.4441 50.9325 84.4765 51.192 84.5738 51.4191C84.6711 51.6786 84.8009 51.8733 84.9956 52.0679C85.1902 52.2626 85.3849 52.3923 85.6119 52.5221C85.8715 52.6194 86.131 52.6519 86.3905 52.6519Z" fill="#3E4B59"/>
<path d="M94.8901 53.1709C94.5981 53.1709 94.3061 53.1384 94.0466 53.0411C93.7871 52.9438 93.5924 52.814 93.3978 52.6194C93.2031 52.4247 93.0734 52.1976 92.9761 51.9381C92.8787 51.6786 92.8139 51.3542 92.8139 50.9973V48.1101H93.3654V50.9649C93.3654 51.5164 93.4951 51.9057 93.7546 52.1976C94.0142 52.4896 94.4035 52.6194 94.8576 52.6194C95.3118 52.6194 95.6687 52.4896 95.9606 52.1976C96.2202 51.9381 96.3499 51.5164 96.3499 50.9649V48.0776H96.9014V50.9C96.9014 51.2569 96.8365 51.5813 96.7392 51.8408C96.6419 52.1003 96.5121 52.3274 96.3175 52.5221C96.1228 52.7167 95.9282 52.8465 95.6687 52.9438C95.5065 53.1384 95.2145 53.1709 94.8901 53.1709Z" fill="#3E4B59"/>
<path d="M98.6532 48.1426H100.762C101.054 48.1426 101.346 48.175 101.573 48.2723C101.8 48.3697 101.995 48.467 102.157 48.6292C102.287 48.759 102.384 48.8887 102.449 49.0509C102.514 49.2131 102.546 49.4078 102.546 49.6024C102.546 49.7971 102.514 49.9917 102.449 50.1539C102.384 50.3161 102.287 50.4459 102.157 50.5757C102.027 50.7054 101.897 50.8027 101.735 50.8676C101.573 50.9325 101.378 50.9974 101.184 51.0298L102.708 53.0412H102.027L100.6 51.1272H99.2047V53.0412H98.6532V48.1426ZM100.729 50.673C100.924 50.673 101.086 50.6405 101.249 50.6081C101.411 50.5757 101.54 50.4783 101.638 50.4135C101.735 50.3161 101.832 50.2188 101.897 50.089C101.962 49.9593 101.995 49.8295 101.995 49.6673C101.995 49.3753 101.897 49.1158 101.67 48.9536C101.443 48.7914 101.151 48.6941 100.729 48.6941H99.2047V50.7054H100.729V50.673Z" fill="#3E4B59"/>
<path d="M106.082 53.1709C105.79 53.1709 105.498 53.1384 105.239 53.0411C104.979 52.9438 104.785 52.814 104.59 52.6194C104.395 52.4247 104.266 52.1976 104.168 51.9381C104.071 51.6786 104.006 51.3542 104.006 50.9973V48.1101H104.558V50.9649C104.558 51.5164 104.687 51.9057 104.947 52.1976C105.206 52.4896 105.596 52.6194 106.05 52.6194C106.504 52.6194 106.861 52.4896 107.153 52.1976C107.445 51.9057 107.542 51.5164 107.542 50.9649V48.0776H108.094V50.9C108.094 51.2569 108.029 51.5813 107.931 51.8408C107.834 52.1003 107.704 52.3274 107.51 52.5221C107.315 52.7167 107.12 52.8465 106.861 52.9438C106.666 53.1384 106.374 53.1709 106.082 53.1709Z" fill="#3E4B59"/>
<path d="M112.116 53.1709C111.727 53.1709 111.37 53.106 111.078 52.9762C110.754 52.8465 110.494 52.6518 110.3 52.4247C110.072 52.1976 109.91 51.9381 109.813 51.6137C109.683 51.2893 109.651 50.9649 109.651 50.608C109.651 50.2836 109.716 49.9592 109.845 49.6348C109.975 49.3104 110.137 49.0509 110.364 48.8238C110.592 48.5967 110.851 48.402 111.143 48.2723C111.435 48.1425 111.792 48.0776 112.149 48.0776C112.343 48.0776 112.538 48.0776 112.733 48.1101C112.895 48.1425 113.057 48.175 113.219 48.2398C113.381 48.3047 113.511 48.3696 113.641 48.4345C113.771 48.5318 113.901 48.5967 114.03 48.7265L113.673 49.1482C113.576 49.0509 113.479 48.986 113.381 48.9211C113.284 48.8562 113.154 48.7913 113.057 48.7589C112.927 48.694 112.798 48.6616 112.668 48.6291C112.538 48.5967 112.376 48.5967 112.181 48.5967C111.922 48.5967 111.662 48.6616 111.435 48.7589C111.208 48.8562 111.013 49.0184 110.851 49.1806C110.689 49.3753 110.559 49.5699 110.462 49.8295C110.364 50.089 110.332 50.3485 110.332 50.608C110.332 50.9 110.364 51.192 110.462 51.4191C110.559 51.6786 110.689 51.8732 110.851 52.0679C111.013 52.2625 111.24 52.3923 111.467 52.4896C111.695 52.5869 111.987 52.6518 112.278 52.6518C112.57 52.6518 112.83 52.6194 113.09 52.5221C113.349 52.4247 113.544 52.295 113.706 52.1652V50.9324H112.051V50.4458H114.095V52.4247C113.868 52.6194 113.576 52.814 113.252 52.9438C112.895 53.106 112.538 53.1709 112.116 53.1709Z" fill="#3E4B59"/>
<path d="M117.696 53.1709C117.404 53.1709 117.112 53.1384 116.853 53.0411C116.593 52.9438 116.399 52.814 116.204 52.6194C116.009 52.4247 115.879 52.1976 115.782 51.9381C115.685 51.6786 115.62 51.3542 115.62 50.9973V48.1101H116.171V50.9649C116.171 51.5164 116.301 51.9057 116.561 52.1976C116.82 52.4896 117.21 52.6194 117.664 52.6194C118.118 52.6194 118.475 52.4896 118.767 52.1976C119.059 51.9057 119.156 51.5164 119.156 50.9649V48.0776H119.707V50.9C119.707 51.2569 119.643 51.5813 119.545 51.8408C119.448 52.1003 119.318 52.3274 119.124 52.5221C118.929 52.7167 118.734 52.8465 118.475 52.9438C118.28 53.1384 117.988 53.1709 117.696 53.1709Z" fill="#3E4B59"/>
<path d="M123.244 48.1101H123.763L126.001 53.106H125.385L124.801 51.8084H122.108L121.524 53.106H120.94L123.244 48.1101ZM124.639 51.2893L123.503 48.7589L122.368 51.2893H124.639Z" fill="#3E4B59"/>
<path d="M128.888 51.1272L126.845 48.1426H127.526L129.18 50.6081L130.867 48.1426H131.516L129.472 51.1272V53.1061H128.921V51.1272H128.888Z" fill="#3E4B59"/>
<path d="M136.512 53.1709C136.123 53.1709 135.766 53.106 135.441 52.9763C135.117 52.8465 134.793 52.6519 134.501 52.3923L134.857 51.9706C135.117 52.1977 135.377 52.3923 135.636 52.4896C135.896 52.6194 136.188 52.6519 136.544 52.6519C136.869 52.6519 137.161 52.587 137.355 52.4248C137.55 52.2626 137.647 52.0679 137.647 51.8084C137.647 51.7111 137.615 51.5813 137.583 51.5164C137.55 51.4191 137.485 51.3542 137.388 51.2569C137.291 51.192 137.161 51.1271 136.999 51.0622C136.836 50.9974 136.609 50.9325 136.35 50.9C136.058 50.8352 135.831 50.7703 135.604 50.673C135.409 50.6081 135.214 50.5107 135.085 50.381C134.955 50.2837 134.857 50.1215 134.793 49.9917C134.728 49.8295 134.695 49.6673 134.695 49.4726C134.695 49.278 134.728 49.1158 134.825 48.9211C134.89 48.7589 135.02 48.6292 135.149 48.4994C135.312 48.3696 135.474 48.2723 135.668 48.2074C135.863 48.1425 136.09 48.1101 136.317 48.1101C136.674 48.1101 136.999 48.175 137.258 48.2723C137.518 48.3696 137.777 48.5318 138.037 48.7265L137.712 49.1482C137.485 48.9536 137.258 48.8238 137.031 48.7265C136.804 48.6292 136.544 48.5967 136.285 48.5967C135.96 48.5967 135.701 48.6616 135.506 48.8238C135.312 48.986 135.214 49.1807 135.214 49.4077C135.214 49.5375 135.247 49.6348 135.279 49.7322C135.312 49.8295 135.377 49.8944 135.474 49.9917C135.571 50.0566 135.701 50.1539 135.896 50.2188C136.058 50.2837 136.285 50.3485 136.577 50.4134C137.128 50.5432 137.518 50.7054 137.777 50.9325C138.037 51.1596 138.166 51.4515 138.166 51.8084C138.166 52.0355 138.134 52.1977 138.037 52.3923C137.939 52.5545 137.842 52.7167 137.68 52.8465C137.518 52.9763 137.355 53.0736 137.161 53.1385C136.966 53.1385 136.739 53.1709 136.512 53.1709Z" fill="#3E4B59"/>
<path d="M139.691 48.1426H143.26V48.6616H140.243V50.3486H142.935V50.8676H140.243V52.587H143.292V53.1061H139.691V48.1426V48.1426Z" fill="#3E4B59"/>
<path d="M147.055 53.1709C146.666 53.1709 146.309 53.106 146.017 52.9762C145.693 52.8465 145.433 52.6518 145.239 52.4247C145.012 52.1976 144.849 51.9381 144.752 51.6137C144.622 51.2893 144.59 50.9649 144.59 50.608C144.59 50.2836 144.655 49.9592 144.784 49.6348C144.914 49.3104 145.076 49.0509 145.303 48.8238C145.531 48.5967 145.79 48.402 146.082 48.2723C146.374 48.1425 146.731 48.0776 147.088 48.0776C147.282 48.0776 147.477 48.0776 147.672 48.1101C147.834 48.1425 147.996 48.175 148.158 48.2398C148.32 48.3047 148.45 48.3696 148.58 48.4345C148.71 48.5318 148.84 48.5967 148.969 48.7265L148.612 49.1482C148.515 49.0509 148.418 48.986 148.32 48.9211C148.223 48.8562 148.093 48.7913 147.996 48.7589C147.866 48.694 147.737 48.6616 147.607 48.6291C147.477 48.5967 147.315 48.5967 147.12 48.5967C146.861 48.5967 146.601 48.6616 146.374 48.7589C146.147 48.8562 145.952 49.0184 145.79 49.1806C145.628 49.3753 145.498 49.5699 145.401 49.8295C145.303 50.089 145.271 50.3485 145.271 50.608C145.271 50.9 145.303 51.192 145.401 51.4191C145.498 51.6786 145.628 51.8732 145.79 52.0679C145.952 52.2625 146.179 52.3923 146.406 52.4896C146.634 52.5869 146.926 52.6518 147.218 52.6518C147.509 52.6518 147.769 52.6194 148.029 52.5221C148.288 52.4247 148.483 52.295 148.645 52.1652V50.9324H147.153V50.4458H149.196V52.4247C148.969 52.6194 148.677 52.814 148.353 52.9438C147.866 53.106 147.477 53.1709 147.055 53.1709Z" fill="#3E4B59"/>
<path d="M152.635 53.1709C152.343 53.1709 152.051 53.1384 151.792 53.0411C151.532 52.9438 151.338 52.814 151.143 52.6194C150.948 52.4247 150.818 52.1976 150.721 51.9381C150.624 51.6786 150.559 51.3542 150.559 50.9973V48.1101H151.11V50.9649C151.11 51.5164 151.24 51.9057 151.5 52.1976C151.759 52.4896 152.149 52.6194 152.603 52.6194C153.057 52.6194 153.414 52.4896 153.706 52.1976C153.998 51.9057 154.095 51.5164 154.095 50.9649V48.0776H154.647V50.9C154.647 51.2569 154.582 51.5813 154.484 51.8408C154.387 52.1003 154.257 52.3274 154.063 52.5221C153.868 52.7167 153.673 52.8465 153.414 52.9438C153.219 53.1384 152.96 53.1709 152.635 53.1709Z" fill="#3E4B59"/>
<path d="M156.366 48.1426H158.475C158.767 48.1426 159.058 48.175 159.286 48.2723C159.513 48.3697 159.707 48.467 159.87 48.6292C159.999 48.759 160.097 48.8887 160.161 49.0509C160.226 49.2131 160.259 49.4078 160.259 49.6024C160.259 49.7971 160.226 49.9917 160.161 50.1539C160.097 50.3161 159.999 50.4459 159.87 50.5757C159.74 50.7054 159.61 50.8027 159.448 50.8676C159.286 50.9325 159.091 50.9974 158.896 51.0298L160.421 53.0412H159.74L158.312 51.1272H156.917V53.0412H156.366V48.1426ZM158.442 50.673C158.637 50.673 158.799 50.6405 158.961 50.6081C159.123 50.5757 159.253 50.4783 159.35 50.4135C159.448 50.3161 159.545 50.2188 159.61 50.089C159.675 49.9593 159.707 49.8295 159.707 49.6673C159.707 49.3753 159.61 49.1158 159.383 48.9536C159.156 48.7914 158.864 48.6941 158.442 48.6941H156.917V50.7054H158.442V50.673Z" fill="#3E4B59"/>
<path d="M164.119 53.1709C163.73 53.1709 163.406 53.106 163.081 52.9763C162.757 52.8465 162.497 52.6519 162.303 52.4248C162.076 52.1977 161.913 51.9057 161.784 51.6137C161.654 51.2893 161.589 50.9974 161.589 50.6405C161.589 50.3161 161.654 49.9917 161.784 49.6673C161.913 49.3429 162.076 49.0833 162.303 48.8563C162.53 48.6292 162.789 48.4345 163.114 48.3048C163.438 48.175 163.762 48.1101 164.152 48.1101C164.541 48.1101 164.865 48.175 165.19 48.3048C165.514 48.4345 165.774 48.6292 165.968 48.8563C166.196 49.0833 166.358 49.3753 166.487 49.6673C166.617 49.9917 166.682 50.2837 166.682 50.6405C166.682 50.9649 166.617 51.2893 166.487 51.6137C166.358 51.9382 166.196 52.1977 165.968 52.4248C165.741 52.6519 165.482 52.8465 165.157 52.9763C164.865 53.106 164.509 53.1709 164.119 53.1709ZM164.152 52.6519C164.444 52.6519 164.703 52.587 164.93 52.4896C165.157 52.3923 165.384 52.2301 165.547 52.0679C165.709 51.8733 165.839 51.6786 165.936 51.4191C166.033 51.1596 166.066 50.9 166.066 50.6405C166.066 50.3485 166.033 50.089 165.936 49.8619C165.839 49.6024 165.709 49.4078 165.514 49.2131C165.352 49.0185 165.125 48.8887 164.898 48.7914C164.671 48.694 164.411 48.6292 164.119 48.6292C163.827 48.6292 163.568 48.694 163.341 48.7914C163.114 48.8887 162.887 49.0509 162.724 49.2131C162.562 49.3753 162.432 49.6024 162.335 49.8619C162.238 50.1215 162.205 50.381 162.205 50.6405C162.205 50.9325 162.238 51.192 162.335 51.4191C162.432 51.6786 162.562 51.8733 162.757 52.0679C162.919 52.2626 163.146 52.3923 163.373 52.5221C163.6 52.6194 163.86 52.6519 164.152 52.6519Z" fill="#3E4B59"/>
<path d="M169.861 53.1709C169.472 53.1709 169.115 53.106 168.791 52.9763C168.466 52.8465 168.142 52.6519 167.85 52.3923L168.207 51.9706C168.466 52.1977 168.726 52.3923 168.985 52.4896C169.245 52.6194 169.537 52.6519 169.894 52.6519C170.218 52.6519 170.51 52.587 170.705 52.4248C170.899 52.2626 170.997 52.0679 170.997 51.8084C170.997 51.7111 170.964 51.5813 170.932 51.5164C170.899 51.4191 170.835 51.3542 170.737 51.2569C170.64 51.192 170.51 51.1271 170.348 51.0622C170.186 50.9974 169.959 50.9325 169.699 50.9C169.407 50.8352 169.18 50.7703 168.953 50.673C168.758 50.6081 168.564 50.5107 168.434 50.381C168.304 50.2837 168.207 50.1215 168.142 49.9917C168.077 49.8295 168.045 49.6673 168.045 49.4726C168.045 49.278 168.077 49.1158 168.174 48.9211C168.239 48.7589 168.369 48.6292 168.499 48.4994C168.661 48.3696 168.823 48.2723 169.018 48.2074C169.213 48.1425 169.44 48.1101 169.667 48.1101C170.024 48.1101 170.348 48.175 170.608 48.2723C170.867 48.3696 171.127 48.5318 171.386 48.7265L171.062 49.1482C170.835 48.9536 170.607 48.8238 170.38 48.7265C170.153 48.6292 169.894 48.5967 169.634 48.5967C169.31 48.5967 169.05 48.6616 168.856 48.8238C168.661 48.986 168.564 49.1807 168.564 49.4077C168.564 49.5375 168.596 49.6348 168.629 49.7322C168.661 49.8295 168.726 49.8944 168.823 49.9917C168.921 50.0566 169.05 50.1539 169.245 50.2188C169.407 50.2837 169.634 50.3485 169.926 50.4134C170.478 50.5432 170.867 50.7054 171.127 50.9325C171.386 51.1596 171.516 51.4515 171.516 51.8084C171.516 52.0355 171.483 52.1977 171.386 52.3923C171.289 52.5545 171.191 52.7167 171.029 52.8465C170.867 52.9763 170.705 53.0736 170.51 53.1385C170.316 53.1385 170.088 53.1709 169.861 53.1709Z" fill="#3E4B59"/>
<path d="M54.1117 8.66176C52.0354 10.0567 50.9325 11.6139 50.3161 13.0413C49.9268 12.2303 49.1806 11.3544 48.2074 10.6407C44.9957 8.27247 39.1563 6.48821 35.4581 3.7956C35.4581 3.7956 35.6203 8.56444 39.0915 11.0948C42.1734 13.3657 45.5797 13.7874 47.2017 14.858C48.7913 15.8961 49.1806 17.0964 49.505 17.7453V17.7777C49.8295 16.9342 51.9381 13.9497 54.7605 12.8142C58.4588 11.2895 60.6972 11.3868 64.9145 9.01861C70.0727 6.09892 71.5325 0 71.5325 0C65.6607 4.60663 58.7832 5.51498 54.1117 8.66176Z" fill="#001BDA"/>
<path d="M3.47119 36.6908L0 42.7897C9.21326 37.9236 18.7834 37.6316 29.7809 41.557C44.574 46.8124 50.9 44.9957 53.7873 40.0322C55.7662 36.4962 62.3841 25.0769 62.3841 25.0769C46.0663 38.1506 35.523 26.3745 16.3827 29.2618C11.257 30.0079 5.70963 32.7979 3.47119 36.6908Z" fill="#0074FF"/>
<path d="M48.6616 31.2408C48.8562 31.2084 49.0509 31.2084 49.2455 31.1759C53.3655 30.6244 57.6478 28.905 62.3842 25.1094L67.5098 16.0908C50.1214 29.1321 34.4848 16.9343 22.1248 18.2644C16.2205 18.9132 12.8142 20.6326 10.5758 24.5904C8.30491 28.5806 7.88318 29.1646 7.88318 29.1646C10.7704 27.5425 15.0527 26.6017 19.2375 26.3746C29.3916 25.7907 39.0915 31.403 48.6616 31.2408Z" fill="#001BDA"/>
</svg>
